
<svg xmlns="http://www.w3.org/2000/svg" xmlns:xlink="http://www.w3.org/1999/xlink" viewBox="0 0 40 40" width="40" height="40" fill="none">
  <svg xmlns="http://www.w3.org/2000/svg" height="40" width="40" viewBox="0 0 24 24" fill="#000" x="0" y="0" opacity="100%">
    <path d="M0 0h24v24H0z" fill="none"></path>
    <path d="M14.59 8 12 10.59 9.41 8 8 9.41 10.59 12 8 14.59 9.41 16 12 13.41 14.59 16 16 14.59 13.41 12 16 9.41 14.59 8zM12 2C6.47 2 2 6.47 2 12s4.47 10 10 10 10-4.47 10-10S17.53 2 12 2zm0 18c-4.41 0-8-3.59-8-8s3.59-8 8-8 8 3.59 8 8-3.59 8-8 8z"></path>
  </svg>
  <defs>
    <filter id="filter_dshadow_10_0_2_0000001a" color-interpolation-filters="sRGB" filterUnits="userSpaceOnUse">
      <feFlood flood-opacity="0" result="bg-fix"></feFlood>
      <feColorMatrix in="SourceAlpha" type="matrix" values="0 0 0 0 0 0 0 0 0 0 0 0 0 0 0 0 0 0 127 0" result="alpha"></feColorMatrix>
      <feOffset dx="0" dy="2"></feOffset>
      <feGaussianBlur stdDeviation="5"></feGaussianBlur>
      <feComposite in2="alpha" operator="out"></feComposite>
      <feColorMatrix type="matrix" values="0 0 0 0 0 0 0 0 0 0 0 0 0 0 0 0 0 0 0.1 0"></feColorMatrix>
      <feBlend mode="normal" in2="bg-fix" result="bg-fix-filter_dshadow_10_0_2_0000001a"></feBlend>
      <feBlend in="SourceGraphic" in2="bg-fix-filter_dshadow_10_0_2_0000001a" result="shape"></feBlend>
    </filter>
  </defs>
</svg>